<svg id="visual" viewBox="0 0 675 900" width="675" height="900" xmlns="http://www.w3.org/2000/svg" xmlns:xlink="http://www.w3.org/1999/xlink" version="1.1"><rect x="0" y="0" width="675" height="900" fill="#fff"></rect><defs><linearGradient id="grad1_0" x1="0%" y1="0%" x2="100%" y2="100%"><stop offset="30%" stop-color="#00ffe0" stop-opacity="1"></stop><stop offset="70%" stop-color="#00ffe0" stop-opacity="1"></stop></linearGradient></defs><defs><linearGradient id="grad1_1" x1="0%" y1="0%" x2="100%" y2="100%"><stop offset="30%" stop-color="#00ffe0" stop-opacity="1"></stop><stop offset="70%" stop-color="#ffffff" stop-opacity="1"></stop></linearGradient></defs><defs><linearGradient id="grad2_0" x1="0%" y1="0%" x2="100%" y2="100%"><stop offset="30%" stop-color="#00ffe0" stop-opacity="1"></stop><stop offset="70%" stop-color="#00ffe0" stop-opacity="1"></stop></linearGradient></defs><defs><linearGradient id="grad2_1" x1="0%" y1="0%" x2="100%" y2="100%"><stop offset="30%" stop-color="#ffffff" stop-opacity="1"></stop><stop offset="70%" stop-color="#00ffe0" stop-opacity="1"></stop></linearGradient></defs><g transform="translate(675, 0)"><path d="M0 309.4C-22.2 312.6 -44.4 315.9 -60.4 303.4C-76.3 291 -86.1 262.7 -106 255.9C-125.9 249.1 -156.1 263.7 -168.9 252.8C-181.7 241.8 -177.3 205.3 -185.3 185.3C-193.2 165.2 -213.7 161.6 -224.5 150C-235.3 138.4 -236.5 118.7 -248.5 102.9C-260.5 87.2 -283.3 75.2 -295.2 58.7C-307.2 42.2 -308.3 21.1 -309.4 0L0 0Z" fill="#afffef"></path><path d="M0 154.7C-11.1 156.3 -22.2 158 -30.2 151.7C-38.2 145.5 -43 131.4 -53 128C-63 124.6 -78 131.9 -84.4 126.4C-90.9 120.9 -88.6 102.7 -92.6 92.6C-96.6 82.6 -106.8 80.8 -112.2 75C-117.7 69.2 -118.3 59.4 -124.3 51.5C-130.3 43.6 -141.6 37.6 -147.6 29.4C-153.6 21.1 -154.1 10.6 -154.7 0L0 0Z" fill="#00ffe0"></path></g><g transform="translate(0, 900)"><path d="M0 -309.4C21.8 -307.2 43.6 -305 57 -286.4C70.3 -267.8 75.2 -232.8 95.3 -230C115.4 -227.3 150.8 -256.8 171.9 -257.2C193 -257.6 199.8 -228.9 207.2 -207.2C214.6 -185.4 222.6 -170.7 232.8 -155.6C243.1 -140.5 255.6 -125.1 260.5 -107.9C265.5 -90.8 262.8 -71.9 269.7 -53.6C276.6 -35.4 293 -17.7 309.4 0L0 0Z" fill="#afffef"></path><path d="M0 -154.7C10.9 -153.6 21.8 -152.5 28.5 -143.2C35.2 -133.9 37.6 -116.4 47.6 -115C57.7 -113.7 75.4 -128.4 85.9 -128.6C96.5 -128.8 99.9 -114.5 103.6 -103.6C107.3 -92.7 111.3 -85.3 116.4 -77.8C121.5 -70.2 127.8 -62.5 130.3 -54C132.7 -45.4 131.4 -36 134.9 -26.8C138.3 -17.7 146.5 -8.8 154.7 0L0 0Z" fill="#00ffe0"></path></g></svg>